<svg viewBox="0 0 24 24" fill="none" xmlns="http://www.w3.org/2000/svg">
<g clip-path="url(#clip0_12119_353)">
<path d="M11.9849 0C5.38191 0 0 5.38191 0 12C0 18.6181 5.38191 24 11.9849 24C18.5879 24 24 18.6181 24 12C24 5.38191 18.603 0 11.9849 0ZM15.4372 1.9598C17.8492 2.78894 19.8995 4.46231 21.1809 6.67839L21.6784 7.52261H16.5528L16.4472 7.1005C16.0553 5.54774 15.4824 4.08543 14.7588 2.75879L14.0653 1.49246L15.4372 1.9598ZM15.7085 12C15.7085 12.9347 15.603 13.8392 15.4975 14.593L15.4372 15.0905H8.56281L8.50251 14.608C8.41206 13.9146 8.29146 12.9799 8.29146 12.0151C8.29146 11.0503 8.41206 10.0553 8.50251 9.42211L8.56281 8.9397H15.4221L15.4824 9.42211C15.5729 10.1156 15.6935 11.0503 15.6935 12.0151L15.7085 12ZM12 1.01005L12.4673 1.68844C13.5678 3.27136 14.397 5.00503 14.9397 6.82915L15.1658 7.55276H8.84925L9.07538 6.82915C9.61809 5.00503 10.4623 3.28643 11.5477 1.68844L12.0151 1.01005H12ZM2.8191 6.69347C4.1005 4.47739 6.13568 2.80402 8.56281 1.97487L9.93467 1.50754L9.24121 2.77387C8.51759 4.1005 7.9598 5.56281 7.55276 7.11558L7.44724 7.53769H2.32161L2.8191 6.69347ZM1.71859 14.6533C1.49246 13.7186 1.37186 12.8593 1.37186 12C1.37186 11.1407 1.47739 10.2814 1.71859 9.34673L1.82412 8.92462H7.14573L7.07035 9.55779C6.99498 10.2211 6.90452 11.0955 6.90452 12C6.90452 12.9045 6.99498 13.7789 7.07035 14.4422L7.14573 15.0754H1.82412L1.71859 14.6533ZM8.56281 22.0251C6.13568 21.196 4.1005 19.5226 2.8191 17.3065L2.32161 16.4623H7.44724L7.55276 16.8844C7.94472 18.4372 8.51759 19.8995 9.24121 21.2261L9.93467 22.4925L8.56281 22.0251ZM12 22.99L11.5327 22.3116C10.4322 20.7286 9.60302 18.995 9.0603 17.1709L8.84925 16.4472H15.1658L14.9548 17.1709C14.4121 18.995 13.5678 20.7286 12.4824 22.3116L12.0151 22.99H12ZM21.1809 17.3065C19.8844 19.5226 17.8492 21.2111 15.4372 22.0251L14.0653 22.4925L14.7588 21.2261C15.4824 19.8995 16.0402 18.4372 16.4472 16.8844L16.5528 16.4623H21.6784L21.1809 17.3065ZM22.1608 15.0754H16.8392L16.9146 14.4422C17.0352 13.4623 17.0804 12.7085 17.0804 12C17.0804 11.2915 17.0201 10.5226 16.9146 9.55779L16.8392 8.92462H22.1608L22.2663 9.34673C22.4925 10.2513 22.6131 11.1558 22.6131 12C22.6131 12.8442 22.4925 13.7337 22.2663 14.6533L22.1608 15.0754Z" fill="currentColor"/>
</g>
<defs>
<clipPath id="clip0_12119_353">
<rect width="24" height="24" fill="white"/>
</clipPath>
</defs>
</svg>
